# xmcd
#
# Track frame offsets:
#	150
#	15432
#	28887
#	47136
#	61846
#	75355
#	89740
#	102827
#	114951
#	130883
#
# Disc length: 1971 seconds
#
# Revision: 0
# Processed by: cddbd v1.4PL0 Copyright (c) Steve Scherf et al.
# Submitted via: EasyCDDAExtractor 4.5.0.2
#
DISCID=7507b10a
DTITLE=Amie Comeaux - Moving Out
DYEAR=1900
DGENRE=Country
TTITLE0=Moving Out
TTITLE1=Takin' It Back
TTITLE2=I Want The First To Last
TTITLE3=Blue
TTITLE4=Who's She To You
TTITLE5=You Belong To Me
TTITLE6=One Step Ahead Of You
TTITLE7=I Heard It From My Heart
TTITLE8=Oh No, Not Love Again
TTITLE9=Written In The Stars
EXTD=
EXTT0=
EXTT1=
EXTT2=
EXTT3=
EXTT4=
EXTT5=
EXTT6=
EXTT7=
EXTT8=
EXTT9=
PLAYORDER=
